<svg width="147" height="143" viewBox="0 0 147 143" fill="none" xmlns="http://www.w3.org/2000/svg">
<path d="M33.818 95.8882L27.5218 107.278L40.5631 104.057L43.1516 107.188L15.0693 113.999L12.5508 110.947L22.753 108.433L31.2296 92.752L33.818 95.8882Z" fill="#C4C4C4"/>
<path d="M42.1729 105.977L56.7067 114.443L43.0416 136.167L39.7943 134.276L51.5823 115.526L43.5429 110.841L34.9556 124.503C33.1775 127.33 29.5572 128.716 25.8494 126.556L25.418 125.9L27.1028 123.223L27.7208 123.582C29.2657 124.486 30.7581 124.132 31.6909 122.645L42.1729 105.977Z" fill="#C4C4C4"/>
<path d="M52.3744 134.23L56.5485 135.364L55.2718 139.718L51.0977 138.579L52.3744 134.23Z" fill="#C4C4C4"/>
<path d="M83.9965 115.336L87.7568 114.842L91.3246 139.999L87.5644 140.493L86.002 129.463L75.9747 130.781L77.5371 141.812L73.7768 142.305L70.209 117.148L73.9692 116.654L75.485 127.336L85.5123 126.024L83.9965 115.336Z" fill="#C4C4C4"/>
<path d="M89.291 114.036L103.09 106.428L104.886 109.446L94.3805 115.242L98.1524 121.582L108.343 115.96L110.138 118.978L99.9479 124.6L103.901 131.237L114.406 125.442L116.202 128.46L102.402 136.068L89.291 114.036Z" fill="#C4C4C4"/>
<path d="M121.424 114.835L112.877 94.7776L115.425 91.6133L136.284 107.166L133.981 110.027L118.264 98.3123L127.096 118.583L124.549 121.747L103.689 106.195L105.992 103.334L121.424 114.835Z" fill="#C4C4C4"/>
<path d="M127.592 89.5017L128.623 85.7707C129.276 83.4199 128.297 81.0074 125.813 80.3734C123.021 79.6553 121.144 81.6975 120.543 83.8856C119.937 86.0737 120.339 88.6938 122.782 89.3166L121.808 92.8456C117.966 91.8638 115.798 87.5268 117.051 82.9879C118.211 78.7856 122.251 75.6774 126.618 76.7995C129.096 77.4335 130.693 79.2457 131.468 81.316C133.182 79.3074 135.654 78.2134 138.732 78.9988C143.274 80.1602 145.396 84.6655 144.003 89.7093C142.749 94.2482 138.977 97.0647 134.599 96.6608L134.529 92.8624C137.368 93.4123 139.723 91.673 140.51 88.8173C141.257 86.1298 140.551 83.246 137.584 82.4886C134.616 81.7312 132.914 83.8127 132.22 86.3318L131.095 90.3994L127.592 89.5017Z" fill="#C4C4C4"/>
<path d="M120.187 73.5915L119.085 64.6091C118.532 60.1206 120.98 56.3391 125.288 55.8454C127.69 55.5705 129.853 56.5523 131.264 58.2804C132.121 56.0811 134.039 54.4989 136.907 54.1679C141.396 53.6573 144.69 56.7824 145.244 61.2764L146.392 70.6011L120.187 73.5915ZM130.191 63.1672C129.935 61.0969 128.605 59.1444 125.912 59.453C123.219 59.7616 122.397 61.9553 122.653 64.0256L123.335 69.5519L130.873 68.6935L130.191 63.1672ZM141.635 61.5177C141.379 59.4474 139.688 57.5342 137.175 57.8203C134.307 58.1457 133.485 60.3451 133.736 62.4153L134.459 68.2896L142.352 67.3919L141.635 61.5177Z" fill="#C4C4C4"/>
<path d="M117.448 55.7243L109.963 42.2197L113.152 40.5814L118.853 50.8599L125.552 47.4207L120.019 37.4451L123.208 35.8069L128.741 45.7824L135.754 42.1804L130.052 31.9019L133.241 30.2637L140.727 43.7682L117.448 55.7243Z" fill="#C4C4C4"/>
<path d="M100.064 34.9627C96.9454 32.5894 94.9458 28.8528 94.9749 24.8862L98.5311 24.4878C98.3795 27.4783 99.4464 30.104 102.14 32.1574C106.961 35.8267 112.709 34.6541 116.324 30.2611C119.932 25.868 119.787 20.2126 114.82 16.4367C112.126 14.3889 109.223 13.9962 106.232 14.8265L105.818 11.4041C109.824 10.4559 114.062 11.4658 117.181 13.8391C123.419 18.5856 124.147 26.6759 119.349 32.5165C114.528 38.3851 106.157 39.6026 100.064 34.9627Z" fill="#C4C4C4"/>
<path d="M94.1578 29.7071L76.3418 25.1345L77.2746 21.7738L84.3287 23.586L90.1935 2.40625L93.8954 3.35443L88.0306 24.5342L95.0847 26.3464L94.1578 29.7071Z" fill="#C4C4C4"/>
<path d="M63.3117 26.7286L59.5398 27.1381L56.6016 1.90197L60.3735 1.4924L61.6619 12.5564L71.7183 11.4679L70.4299 0.403958L74.2018 0L77.1459 25.2362L73.374 25.6457L72.1264 14.9296L62.0699 16.0181L63.3117 26.7286Z" fill="#C4C4C4"/>
<path d="M52.171 30.9137L48.7256 32.8269L27.7207 15.1649L31.0087 13.3415L36.4713 17.9365L44.9595 13.2293L43.537 6.39569L46.8251 4.57227L52.171 30.9137ZM45.6999 16.8369L39.3454 20.3659L47.9211 27.6484L45.6999 16.8369Z" fill="#C4C4C4"/>
<path d="M36.5063 31.9637C40.2258 34.7241 40.0567 39.2125 37.4041 42.5171L31.6676 49.6761L10.7734 34.1686L13.0937 31.2792L22.2524 38.0792L22.6954 37.5293L19.1859 23.6769L21.8151 20.4004L22.3865 20.8268L25.5171 34.0003C28.1697 30.6957 32.9268 29.3099 36.5063 31.9637ZM25.1148 40.1999L31.1254 44.6603L34.6583 40.2561C35.9816 38.6009 36.0516 36.2389 34.1919 34.8587C32.3322 33.4785 29.9711 34.1406 28.6477 35.7957L25.1148 40.1999Z" fill="#C4C4C4"/>
<path d="M21.104 55.4998C25.7445 56.2067 28.333 60.4763 27.6567 64.6001C26.9805 68.7238 23.5001 72.0677 18.5039 71.3046C15.2917 70.8165 13.5485 68.505 12.2893 66.833C8.68645 62.0585 7.42721 57.4635 5.42757 57.1605L3.53288 68.6677L0 68.1291L2.60011 52.3242L4.38403 52.5935C9.20531 53.3285 11.2224 59.977 14.8253 64.7515C15.8455 66.1037 16.7491 67.5119 19.0694 67.8654C21.926 68.303 23.8265 66.3 24.1938 64.0671C24.5611 61.8341 23.4009 59.3318 20.5443 58.8998L19.4716 58.7371L20.0313 55.3371L21.104 55.4998Z" fill="#C4C4C4"/>
<path d="M25.2367 87.5453C25.2367 87.5453 15.1336 84.3978 1.22944 82.3836L0.640625 78.95L1.35186 78.8377C11.8689 80.5433 21.185 82.9727 24.6012 83.8704L22.3976 71.0728L25.9246 70.5117L28.7637 86.9842L25.2367 87.5453Z" fill="#C4C4C4"/>
</svg>
