<svg width="178" height="163" viewBox="0 0 178 163" fill="none" xmlns="http://www.w3.org/2000/svg">
<path d="M177.062 158.117C177.062 159.123 176.805 159.626 176.302 159.626C171.082 159.626 166.881 159.544 163.686 159.369L146.284 159.112L127.876 159.369C124.845 159.533 120.901 159.626 116.021 159.626C115.518 159.626 115.26 159.123 115.26 158.117C115.26 157.111 115.518 156.608 116.021 156.608C122.575 156.608 127.373 156.186 130.404 155.344C133.435 154.502 135.448 152.91 136.454 150.547C137.46 148.195 137.964 144.416 137.964 139.198L137.964 22.9559L29.5143 161.908C29.0111 162.575 28.0047 162.914 26.4833 162.914C23.9555 162.914 22.7033 162.329 22.7033 161.147L22.7033 22.4528C22.7033 17.41 22.1533 13.7127 21.0649 11.3609C19.9649 9.00918 17.8701 7.37115 14.7572 6.44683C11.6442 5.52251 6.89292 5.0545 0.503218 5.0545C0.163838 5.0545 0 4.55139 0 3.53347C0 2.52725 0.163838 2.02414 0.503218 2.02414L13.622 2.28155C20.6904 2.62085 26.4014 2.78466 30.7782 2.78466C35.6583 2.78466 41.7905 2.62085 49.1866 2.28155L61.0415 2.02414C61.5447 2.02414 61.8022 2.52725 61.8022 3.53347C61.8022 4.53969 61.5447 5.0428 61.0415 5.0428C54.488 5.0428 49.6898 5.51081 46.6588 6.43513C43.6278 7.35945 41.615 8.99748 40.6085 11.3492C39.6021 13.701 39.0989 17.3983 39.0989 22.4411L39.0989 140.204L147.806 0.760515C148.309 0.257405 149.233 0 150.579 0C153.107 0 154.359 0.585012 154.359 1.76674L154.359 139.198C154.359 144.24 154.898 147.985 155.998 150.418C157.086 152.852 159.146 154.502 162.177 155.332C165.208 156.175 169.912 156.596 176.302 156.596C176.817 156.608 177.062 157.111 177.062 158.117Z" fill="#0029FF"/>
</svg>
