<svg width="152" height="186" viewBox="0 0 152 186" fill="none" xmlns="http://www.w3.org/2000/svg">
<path d="M0 185.847L46.7244 109.991C35.1773 105.972 26.1515 99.408 19.6837 90.299C13.2037 81.2021 9.97582 70.1811 9.97582 57.2238C9.97582 37.2765 16.7604 22.7604 30.3173 13.6514C43.8741 4.55452 61.5115 0 83.2171 0L151.477 0V185.834H106.579V116.81H90.8299L51.7184 185.834H0L0 185.847ZM87.1514 82.6999H106.579V35.7177H85.5801C64.581 35.7177 54.0814 43.4141 54.0814 58.8191C54.0814 67.0392 57.1387 73.0794 63.2655 76.9276C69.3922 80.7758 77.3461 82.6999 87.1514 82.6999Z" fill="#0029FF"/>
</svg>
