<svg width="889" height="977" viewBox="0 0 889 977" fill="none" xmlns="http://www.w3.org/2000/svg">
<path d="M79.1932 429.548C80.6652 366.664 99.0252 301.767 132.903 240.959C149.039 211.991 169.077 179.508 202.665 161.528C234.865 144.291 270.825 148.249 299.423 158.975C362.297 182.537 404.836 231.852 434.337 283.33C450.076 310.799 462.624 339.853 473.779 369.418C486.456 403.044 497.236 437.423 506.121 472.414C514.917 507.081 521.844 542.34 526.85 578.077C528.301 588.435 534.089 606.5 521.476 616.056C509.435 625.178 496.254 616.604 489.782 609.434C467.148 584.372 452.359 553.315 442.737 521.678C432.828 489.096 428.271 454.77 426.59 420.048C425.732 402.426 425.607 384.68 425.938 366.878C426.235 350.607 426.431 334.207 429.154 317.711C434.083 287.899 451.072 253.664 486.575 238.309C519.982 223.853 553.716 235.216 579.344 248.276C609.799 263.797 635.547 284.696 657.772 307.941C680.889 332.115 700.404 358.85 718.651 386.18C738.776 416.324 757.155 447.465 774.215 479.257C808.479 543.117 837.437 609.521 865.279 676.315C872.048 692.544 878.741 708.798 885.434 725.052C886.406 727.401 881.827 729.433 880.86 727.074C854.564 663.232 828.21 599.381 798.109 537.221C768.295 475.635 734.913 415.401 694.156 359.656C676.075 334.926 656.149 311.194 632.526 290.402C609.646 270.278 582.453 251.177 550.633 241.053C535.888 236.364 519.221 233.805 502.15 237.456C483.9 241.36 468.083 252.35 456.703 265.784C432.594 294.252 431.674 328.332 430.919 359.051C429.263 426.491 432.984 495.163 460.653 554.815C467.466 569.51 475.752 583.554 485.681 596.569C490.003 602.24 494.309 608.446 500.72 612.509C506.048 615.883 514.518 618.05 520.337 611.575C525.194 606.165 524.524 598.664 523.868 593C522.84 584.194 521.543 575.447 520.209 566.715C517.624 549.762 514.596 532.918 511.142 516.201C497.528 450.353 477.806 385.7 450.044 325.024C425.649 271.713 392.572 220.258 340.315 185.469C315.931 169.237 286.424 154.474 252.467 153.811C235.098 153.475 217.162 157.569 201.323 166.803C185.296 176.155 172.579 189.41 162.116 203.139C141.059 230.768 125.598 261.808 113.333 291.964C101.077 322.115 92.5801 352.882 87.9671 383.48C85.6894 398.585 84.4031 413.632 84.052 428.569C83.9657 431.169 79.1261 432.191 79.1932 429.548Z" fill="#00FF94"/>
</svg>
