<svg width="113" height="117" viewBox="0 0 113 117" fill="none" xmlns="http://www.w3.org/2000/svg">
<path d="M27.818 3.68928C0.256051 27.4514 -3.31233 68.3954 19.8501 95.1388C38.3793 116.534 71.2768 118.469 93.3278 99.4581C110.968 84.2511 113.252 58.047 98.4269 40.9296C86.5671 27.2358 65.5149 25.9986 51.4019 38.1655C40.112 47.8991 38.6513 64.6682 48.1393 75.6229C55.7295 84.387 69.2041 85.1782 78.2357 77.3935C85.4612 71.1649 86.3957 60.4318 80.3243 53.4208C75.4655 47.8127 66.8436 47.3051 61.0619 52.2889C56.4384 56.2758 55.84 63.1446 59.7254 67.6327C62.8346 71.2235 68.3528 71.5473 72.0535 68.3576" stroke="#0029FF" stroke-width="8" stroke-miterlimit="10"/>
</svg>
