<svg width="41" height="42" viewBox="0 0 41 42" fill="none" xmlns="http://www.w3.org/2000/svg">
<path d="M21.5691 19.646C21.5096 20.8616 20.7877 20.9326 20.5336 19.7864C19.9628 17.2116 18.0451 12.8558 16.2671 9.96974C14.0899 6.43655 10.543 1.85789 10.543 1.85789L19.9506 0.710938C19.9506 0.710938 21.6722 4.45551 21.8423 8.52746C22.0537 13.5762 21.7752 15.4588 21.5691 19.646Z" fill="#C4C4C4"/>
<path d="M22.1881 20.1316C21.2494 20.9061 20.7107 20.42 21.3868 19.4608C22.9054 17.305 24.833 12.953 25.7686 9.69454C26.9132 5.70577 27.9083 0 27.9083 0L35.0922 6.18042C35.0922 6.18042 33.4844 9.9746 30.5891 12.8439C27.0002 16.4007 25.4214 17.463 22.1881 20.1316Z" fill="#C4C4C4"/>
<path d="M22.007 21.0457C20.796 20.9251 20.7617 20.2009 21.9185 20.0041C24.5184 19.563 28.9651 17.8658 31.9366 16.2343C35.5744 14.2372 40.3247 10.9238 40.3247 10.9238L40.9993 20.3765C40.9993 20.3765 37.1738 21.9088 33.0981 21.8744C28.0448 21.8332 26.1782 21.4608 22.007 21.0457Z" fill="#C4C4C4"/>
<path d="M21.3271 21.2615C20.735 20.1977 21.3103 19.7566 22.1314 20.5945C23.9766 22.4787 27.9074 25.1625 30.9431 26.6719C34.6586 28.5202 40.0897 30.5317 40.0897 30.5317L32.7104 36.4779C32.7104 36.4779 29.2696 34.2099 26.9726 30.8431C24.1255 26.6696 23.3662 24.9244 21.3271 21.2615Z" fill="#C4C4C4"/>
<path d="M20.6153 20.8651C21.1564 19.7746 21.8462 19.999 21.6211 21.1505C21.1137 23.7382 21.1289 28.4985 21.6043 31.8546C22.1858 35.9632 23.6044 41.5789 23.6044 41.5789L14.5242 38.8668C14.5242 38.8668 14.4441 34.7468 15.9176 30.9465C17.7438 26.2343 18.7518 24.6204 20.6153 20.8651Z" fill="#C4C4C4"/>
<path d="M20.2086 20.1873C21.412 20.0011 21.6257 20.694 20.5551 21.1732C18.1482 22.25 14.2663 25.0048 11.7969 27.3277C8.77418 30.171 5.00214 34.5665 5.00214 34.5665L1.98633 25.5817C1.98633 25.5817 5.30814 23.142 9.26257 22.1561C14.1656 20.9336 16.0657 20.8275 20.2086 20.1873Z" fill="#C4C4C4"/>
<path d="M21.0885 19.562C22.0149 20.3885 21.6143 20.9929 20.5444 20.4541C18.1414 19.2438 13.4719 17.9335 10.057 17.4589C5.8767 16.8774 0 16.6866 0 16.6866L5.04491 8.66406C5.04491 8.66406 9.10466 9.73394 12.4417 12.2148C16.5808 15.2917 17.898 16.7156 21.0885 19.562Z" fill="#C4C4C4"/>
</svg>
